<svg xmlns="http://www.w3.org/2000/svg" viewBox="0 0 14 14" fill="black">
    <g transform="translate(3.616699, 1.608398)">
        <path d="M.014 12.398h6.934c1.352 0 2.025-.685 2.025-2.043v-5.93c0-.842-.098-1.208-.62-1.743l-3.6-3.663c-.496-.51-.907-.62-1.639-.62h-3.1c-1.346 0-2.025.692-2.025 2.05v9.906c0 1.364.673 2.043 2.025 2.043zm.045-1.05c-.672 0-1.018-.36-1.018-1.013V.468C-.96-.178-.613-.55.066-.55h2.906v3.794c0 .822.411 1.227 1.227 1.227h3.722v5.864c0 .653-.346 1.012-1.025 1.012H.06zm4.258-7.863c-.261 0-.36-.104-.36-.365V-.348L7.72 3.485H4.317zm1.567 2.788H.928a.399.399 0 0 0-.412.399.4.4 0 0 0 .412.405h4.956a.393.393 0 0 0 .398-.405.392.392 0 0 0-.398-.399zm0 2.28H.928a.406.406 0 0 0-.412.41c0 .223.177.393.412.393h4.956c.228 0 .398-.17.398-.392a.399.399 0 0 0-.398-.412z"></path>
     </g>
</svg>

